<svg xmlns="http://www.w3.org/2000/svg" viewBox="0 0 1280 800" width="1280" height="800">
<defs>
 <linearGradient id="g" x1="0" y1="0" x2="1" y2="1"><stop offset="0" stop-color="#7c3aed"/><stop offset="1" stop-color="#c026d3"/></linearGradient>
 <radialGradient id="gl1" cx="0.5" cy="0.5" r="0.5"><stop offset="0" stop-color="#ef4444" stop-opacity="0.32"/><stop offset="1" stop-color="#ef4444" stop-opacity="0"/></radialGradient>
 <radialGradient id="gl2" cx="0.5" cy="0.5" r="0.5"><stop offset="0" stop-color="#8b5cf6" stop-opacity="0.45"/><stop offset="1" stop-color="#8b5cf6" stop-opacity="0"/></radialGradient>
 <filter id="sh" x="-30%" y="-30%" width="160%" height="160%"><feDropShadow dx="0" dy="30" stdDeviation="38" flood-color="#000000" flood-opacity="0.5"/></filter>
 <style>
  text{font-family:'Inter','Helvetica Neue',Arial,sans-serif}
  .tt{fill:#fff;font-size:23px;font-weight:800}
  .sub{fill:#6b7280;font-size:12.5px;font-weight:500}
  .pn{fill:#fff;font-size:16px;font-weight:700}
  .pd{fill:#9ca3af;font-size:12px;font-weight:500}
 </style>
</defs>
<rect width="1280" height="800" fill="#0b0b14"/>
<circle cx="1090" cy="120" r="360" fill="url(#gl1)" opacity="0.6"/>
<circle cx="160" cy="700" r="300" fill="url(#gl2)" opacity="0.5"/>
<rect x="120" y="80" width="1040" height="640" rx="18" fill="#121019" stroke="#ffffff" stroke-opacity="0.09" filter="url(#sh)"/>
<circle cx="152" cy="104" r="6" fill="#ef4444"/><circle cx="172" cy="104" r="6" fill="#f59e0b"/><circle cx="192" cy="104" r="6" fill="#22c55e"/>
<text x="640" y="109" text-anchor="middle" fill="#9ca3af" font-size="13" font-weight="600">RetailGuard / Issues</text>
<line x1="120" y1="128" x2="1160" y2="128" stroke="#ffffff" stroke-opacity="0.07"/>
<text x="156" y="184" class="tt">Fix the biggest leaks first</text>
<text x="156" y="208" class="sub">Every margin issue ranked by what it actually costs you &#183; example shop</text>
<rect x="980" y="166" width="148" height="34" rx="17" fill="#ef4444" fill-opacity="0.15"/><circle cx="1004" cy="183" r="4" fill="#ef4444"/><text x="1016" y="187" fill="#ef4444" font-size="12.5" font-weight="700">380 open issues</text>
<line x1="156" y1="234" x2="1124" y2="234" stroke="#ffffff" stroke-opacity="0.06"/>
<!-- rows -->
<g>
 <rect x="156" y="252" width="4" height="44" rx="2" fill="#ef4444"/>
 <text x="180" y="276" class="pn">Frozen pizza, own brand</text><text x="180" y="296" class="pd">Frozen &amp; Ready Meals &#183; selling under cost</text>
 <text x="940" y="285" text-anchor="end" fill="#ef4444" font-size="19" font-weight="800">-15%</text>
 <rect x="968" y="262" width="156" height="32" rx="8" fill="#7c3aed" fill-opacity="0.16" stroke="#7c3aed" stroke-opacity="0.4"/><text x="1046" y="283" text-anchor="middle" fill="#c4b5fd" font-size="12.5" font-weight="700">Fix to &#8364;4.20</text>
 <line x1="156" y1="316" x2="1124" y2="316" stroke="#ffffff" stroke-opacity="0.05"/>
 <rect x="156" y="328" width="4" height="44" rx="2" fill="#ef4444"/>
 <text x="180" y="352" class="pn">Sweets multipack</text><text x="180" y="372" class="pd">Confectionery &#183; below target</text>
 <text x="940" y="361" text-anchor="end" fill="#ef4444" font-size="19" font-weight="800">-8%</text>
 <rect x="968" y="338" width="156" height="32" rx="8" fill="#7c3aed" fill-opacity="0.16" stroke="#7c3aed" stroke-opacity="0.4"/><text x="1046" y="359" text-anchor="middle" fill="#c4b5fd" font-size="12.5" font-weight="700">Fix to &#8364;3.49</text>
 <line x1="156" y1="392" x2="1124" y2="392" stroke="#ffffff" stroke-opacity="0.05"/>
 <rect x="156" y="404" width="4" height="44" rx="2" fill="#f59e0b"/>
 <text x="180" y="428" class="pn">Batch loaf 800g</text><text x="180" y="448" class="pd">Bakery &#183; below target</text>
 <text x="940" y="437" text-anchor="end" fill="#f59e0b" font-size="19" font-weight="800">4%</text>
 <rect x="968" y="414" width="156" height="32" rx="8" fill="#7c3aed" fill-opacity="0.16" stroke="#7c3aed" stroke-opacity="0.4"/><text x="1046" y="435" text-anchor="middle" fill="#c4b5fd" font-size="12.5" font-weight="700">Fix to &#8364;1.85</text>
 <line x1="156" y1="468" x2="1124" y2="468" stroke="#ffffff" stroke-opacity="0.05"/>
 <rect x="156" y="480" width="4" height="44" rx="2" fill="#f59e0b"/>
 <text x="180" y="504" class="pn">Sports drink 500ml</text><text x="180" y="524" class="pd">Soft Drinks &#183; below target</text>
 <text x="940" y="513" text-anchor="end" fill="#f59e0b" font-size="19" font-weight="800">9%</text>
 <rect x="968" y="490" width="156" height="32" rx="8" fill="#7c3aed" fill-opacity="0.16" stroke="#7c3aed" stroke-opacity="0.4"/><text x="1046" y="511" text-anchor="middle" fill="#c4b5fd" font-size="12.5" font-weight="700">Fix to &#8364;1.95</text>
 <line x1="156" y1="544" x2="1124" y2="544" stroke="#ffffff" stroke-opacity="0.05"/>
 <rect x="156" y="556" width="4" height="44" rx="2" fill="#f59e0b"/>
 <text x="180" y="580" class="pn">Cheddar 200g</text><text x="180" y="600" class="pd">Chilled &amp; Dairy &#183; below target</text>
 <text x="940" y="589" text-anchor="end" fill="#f59e0b" font-size="19" font-weight="800">11%</text>
 <rect x="968" y="566" width="156" height="32" rx="8" fill="#7c3aed" fill-opacity="0.16" stroke="#7c3aed" stroke-opacity="0.4"/><text x="1046" y="587" text-anchor="middle" fill="#c4b5fd" font-size="12.5" font-weight="700">Fix to &#8364;2.49</text>
</g>
<line x1="156" y1="632" x2="1124" y2="632" stroke="#ffffff" stroke-opacity="0.06"/>
<text x="156" y="668" fill="#6b7280" font-size="13" font-weight="500">Sorted by impact, so you reprice what matters most.</text>
<text x="1124" y="668" text-anchor="end" fill="#a78bfa" font-size="13" font-weight="600">View all 380 &#8594;</text>
</svg>
