<svg xmlns="http://www.w3.org/2000/svg" viewBox="0 0 1280 800" width="1280" height="800">
<defs>
 <linearGradient id="g" x1="0" y1="0" x2="0" y2="1"><stop offset="0" stop-color="#8b5cf6"/><stop offset="1" stop-color="#7c3aed"/></linearGradient>
 <linearGradient id="gh" x1="0" y1="0" x2="1" y2="1"><stop offset="0" stop-color="#7c3aed"/><stop offset="1" stop-color="#c026d3"/></linearGradient>
 <radialGradient id="gl1" cx="0.5" cy="0.5" r="0.5"><stop offset="0" stop-color="#8b5cf6" stop-opacity="0.5"/><stop offset="1" stop-color="#8b5cf6" stop-opacity="0"/></radialGradient>
 <radialGradient id="gl2" cx="0.5" cy="0.5" r="0.5"><stop offset="0" stop-color="#c026d3" stop-opacity="0.38"/><stop offset="1" stop-color="#c026d3" stop-opacity="0"/></radialGradient>
 <filter id="sh" x="-30%" y="-30%" width="160%" height="160%"><feDropShadow dx="0" dy="30" stdDeviation="38" flood-color="#000000" flood-opacity="0.5"/></filter>
 <style>text{font-family:'Inter','Helvetica Neue',Arial,sans-serif}</style>
</defs>
<rect width="1280" height="800" fill="#0b0b14"/>
<circle cx="1080" cy="110" r="360" fill="url(#gl1)" opacity="0.55"/>
<circle cx="160" cy="710" r="300" fill="url(#gl2)" opacity="0.5"/>
<rect x="90" y="80" width="1100" height="640" rx="18" fill="#121019" stroke="#ffffff" stroke-opacity="0.09" filter="url(#sh)"/>
<circle cx="122" cy="104" r="6" fill="#ef4444"/><circle cx="142" cy="104" r="6" fill="#f59e0b"/><circle cx="162" cy="104" r="6" fill="#22c55e"/>
<text x="640" y="109" text-anchor="middle" fill="#9ca3af" font-size="13" font-weight="600">RetailGuard / Trading patterns</text>
<line x1="90" y1="128" x2="1190" y2="128" stroke="#ffffff" stroke-opacity="0.07"/>
<text x="124" y="184" fill="#fff" font-size="23" font-weight="800">Plan around your busiest times</text>
<text x="124" y="208" fill="#6b7280" font-size="12.5" font-weight="500">Staff and stock to real footfall, not a guess &#183; example shop</text>
<!-- chart panel -->
<rect x="124" y="240" width="648" height="420" rx="14" fill="#16151f" stroke="#ffffff" stroke-opacity="0.06"/>
<text x="152" y="276" fill="#cbd5e1" font-size="14" font-weight="700">Sales by day of week</text>
<text x="744" y="276" text-anchor="end" fill="#6b7280" font-size="11.5" font-weight="500">thousands of sales</text>
<g><rect x="178" y="390" width="46" height="230" rx="8" fill="#2c2a3d"/><text x="201" y="382" text-anchor="middle" fill="#9ca3af" font-size="11.5" font-weight="700">27</text>
<rect x="261" y="373" width="46" height="247" rx="8" fill="#2c2a3d"/><text x="284" y="365" text-anchor="middle" fill="#9ca3af" font-size="11.5" font-weight="700">29</text>
<rect x="344" y="356" width="46" height="264" rx="8" fill="#2c2a3d"/><text x="367" y="348" text-anchor="middle" fill="#9ca3af" font-size="11.5" font-weight="700">31</text>
<rect x="427" y="331" width="46" height="289" rx="8" fill="#2c2a3d"/><text x="450" y="323" text-anchor="middle" fill="#9ca3af" font-size="11.5" font-weight="700">34</text>
<rect x="510" y="297" width="46" height="323" rx="8" fill="url(#g)"/><text x="533" y="289" text-anchor="middle" fill="#c4b5fd" font-size="12.5" font-weight="800">38</text>
<rect x="593" y="314" width="46" height="306" rx="8" fill="#2c2a3d"/><text x="616" y="306" text-anchor="middle" fill="#9ca3af" font-size="11.5" font-weight="700">36</text>
<rect x="676" y="408" width="46" height="212" rx="8" fill="#2c2a3d"/><text x="699" y="400" text-anchor="middle" fill="#9ca3af" font-size="11.5" font-weight="700">25</text></g>
<line x1="152" y1="620" x2="744" y2="620" stroke="#ffffff" stroke-opacity="0.08"/>
<g fill="#9ca3af" font-size="11.5" font-weight="600" text-anchor="middle"><text x="201" y="642">Mon</text><text x="284" y="642">Tue</text><text x="367" y="642">Wed</text><text x="450" y="642">Thu</text><text x="533" y="642" fill="#c4b5fd" font-weight="800">Fri</text><text x="616" y="642">Sat</text><text x="699" y="642">Sun</text></g>
<!-- KPI tiles -->
<rect x="796" y="240" width="360" height="128" rx="14" fill="#16151f" stroke="#7c3aed" stroke-opacity="0.35"/>
<text x="820" y="272" fill="#6b7280" font-size="10.5" font-weight="700" letter-spacing="1.2">BUSIEST DAY</text>
<text x="820" y="316" fill="#fff" font-size="30" font-weight="800">Friday</text>
<text x="820" y="344" fill="#a78bfa" font-size="12.5" font-weight="600">38% busier than Monday</text>
<rect x="796" y="388" width="360" height="128" rx="14" fill="#16151f" stroke="#ffffff" stroke-opacity="0.06"/>
<text x="820" y="420" fill="#6b7280" font-size="10.5" font-weight="700" letter-spacing="1.2">AVERAGE BASKET</text>
<text x="820" y="464" fill="#fff" font-size="30" font-weight="800">2.4 items</text>
<text x="820" y="492" fill="#9ca3af" font-size="12.5" font-weight="600">&#8364;16.90 per sale</text>
<rect x="796" y="536" width="360" height="120" rx="14" fill="#16151f" stroke="#ffffff" stroke-opacity="0.06"/>
<text x="820" y="568" fill="#6b7280" font-size="10.5" font-weight="700" letter-spacing="1.2">BUSIEST HOUR</text>
<text x="820" y="608" fill="#fff" font-size="26" font-weight="800">5pm to 6pm</text>
<text x="820" y="634" fill="#9ca3af" font-size="12.5" font-weight="600">staff around the peak</text>
</svg>
