<svg xmlns="http://www.w3.org/2000/svg" viewBox="0 0 1280 800" width="1280" height="800">
<defs>
 <linearGradient id="g" x1="0" y1="0" x2="1" y2="1"><stop offset="0" stop-color="#7c3aed"/><stop offset="1" stop-color="#c026d3"/></linearGradient>
 <linearGradient id="ar" x1="0" y1="0" x2="0" y2="1"><stop offset="0" stop-color="#8b5cf6" stop-opacity="0.35"/><stop offset="1" stop-color="#8b5cf6" stop-opacity="0"/></linearGradient>
 <radialGradient id="gl1" cx="0.5" cy="0.5" r="0.5"><stop offset="0" stop-color="#8b5cf6" stop-opacity="0.55"/><stop offset="1" stop-color="#8b5cf6" stop-opacity="0"/></radialGradient>
 <radialGradient id="gl2" cx="0.5" cy="0.5" r="0.5"><stop offset="0" stop-color="#c026d3" stop-opacity="0.4"/><stop offset="1" stop-color="#c026d3" stop-opacity="0"/></radialGradient>
 <filter id="sh" x="-30%" y="-30%" width="160%" height="160%"><feDropShadow dx="0" dy="30" stdDeviation="38" flood-color="#000000" flood-opacity="0.5"/></filter>
 <style>text{font-family:'Inter','Helvetica Neue',Arial,sans-serif}</style>
</defs>
<rect width="1280" height="800" fill="#0b0b14"/>
<circle cx="1080" cy="90" r="380" fill="url(#gl1)" opacity="0.6"/>
<circle cx="150" cy="720" r="300" fill="url(#gl2)" opacity="0.5"/>
<rect x="90" y="80" width="1100" height="640" rx="18" fill="#121019" stroke="#ffffff" stroke-opacity="0.09" filter="url(#sh)"/>
<circle cx="122" cy="104" r="6" fill="#ef4444"/><circle cx="142" cy="104" r="6" fill="#f59e0b"/><circle cx="162" cy="104" r="6" fill="#22c55e"/>
<text x="640" y="109" text-anchor="middle" fill="#9ca3af" font-size="13" font-weight="600">RetailGuard / Retention</text>
<circle cx="1098" cy="104" r="4" fill="#22c55e"/><text x="1110" y="108" fill="#22c55e" font-size="11.5" font-weight="600">Live</text>
<line x1="90" y1="128" x2="1190" y2="128" stroke="#ffffff" stroke-opacity="0.07"/>

  <!-- Title -->
  <text x="124" y="170" fill="#ffffff" font-size="20" font-weight="700">Cohort retention</text>
  <text x="124" y="194" fill="#6b7280" font-size="13">Stores stay, and spend more</text>
  <!-- KPI Card 1: Net Retention -->
  <rect x="124" y="222" width="320" height="90" rx="8" fill="#16151f" stroke="#ffffff" stroke-opacity="0.06"/>
  <text x="144" y="252" fill="#6b7280" font-size="11">NET RETENTION</text>
  <text x="144" y="290" fill="#ffffff" font-size="28" font-weight="700">118%</text>
  <text x="220" y="290" fill="#22c55e" font-size="12" font-weight="600">&#9650;</text>
  <!-- KPI Card 2: Gross Retention -->
  <rect x="468" y="222" width="320" height="90" rx="8" fill="#16151f" stroke="#ffffff" stroke-opacity="0.06"/>
  <text x="488" y="252" fill="#6b7280" font-size="11">GROSS RETENTION</text>
  <text x="488" y="290" fill="#ffffff" font-size="28" font-weight="700">96%</text>
  <text x="550" y="290" fill="#22c55e" font-size="12" font-weight="600">&#9650;</text>
  <!-- Cohort heatmap header -->
  <text x="200" y="340" fill="#6b7280" font-size="10.5" text-anchor="middle">M0</text>
  <text x="300" y="340" fill="#6b7280" font-size="10.5" text-anchor="middle">M1</text>
  <text x="400" y="340" fill="#6b7280" font-size="10.5" text-anchor="middle">M2</text>
  <text x="500" y="340" fill="#6b7280" font-size="10.5" text-anchor="middle">M3</text>
  <text x="600" y="340" fill="#6b7280" font-size="10.5" text-anchor="middle">M4</text>
  <text x="700" y="340" fill="#6b7280" font-size="10.5" text-anchor="middle">M5</text>
  <text x="800" y="340" fill="#6b7280" font-size="10.5" text-anchor="middle">M6</text>
  <!-- Row 1: Jan (7 cells) -->
  <text x="124" y="370" fill="#6b7280" font-size="11">Jan</text>
  <rect x="154" y="352" width="92" height="30" rx="4" fill="#22c55e" fill-opacity="0.9"/><text x="200" y="372" text-anchor="middle" fill="#ffffff" font-size="10.5">100%</text>
  <rect x="254" y="352" width="92" height="30" rx="4" fill="#22c55e" fill-opacity="0.8"/><text x="300" y="372" text-anchor="middle" fill="#ffffff" font-size="10.5">97%</text>
  <rect x="354" y="352" width="92" height="30" rx="4" fill="#22c55e" fill-opacity="0.7"/><text x="400" y="372" text-anchor="middle" fill="#ffffff" font-size="10.5">95%</text>
  <rect x="454" y="352" width="92" height="30" rx="4" fill="#22c55e" fill-opacity="0.6"/><text x="500" y="372" text-anchor="middle" fill="#ffffff" font-size="10.5">93%</text>
  <rect x="554" y="352" width="92" height="30" rx="4" fill="#22c55e" fill-opacity="0.5"/><text x="600" y="372" text-anchor="middle" fill="#ffffff" font-size="10.5">91%</text>
  <rect x="654" y="352" width="92" height="30" rx="4" fill="#22c55e" fill-opacity="0.4"/><text x="700" y="372" text-anchor="middle" fill="#ffffff" font-size="10.5">90%</text>
  <rect x="754" y="352" width="92" height="30" rx="4" fill="#22c55e" fill-opacity="0.32"/><text x="800" y="372" text-anchor="middle" fill="#ffffff" font-size="10.5">89%</text>
  <!-- Row 2: Feb (6 cells) -->
  <text x="124" y="408" fill="#6b7280" font-size="11">Feb</text>
  <rect x="154" y="390" width="92" height="30" rx="4" fill="#22c55e" fill-opacity="0.9"/><text x="200" y="410" text-anchor="middle" fill="#ffffff" font-size="10.5">100%</text>
  <rect x="254" y="390" width="92" height="30" rx="4" fill="#22c55e" fill-opacity="0.78"/><text x="300" y="410" text-anchor="middle" fill="#ffffff" font-size="10.5">96%</text>
  <rect x="354" y="390" width="92" height="30" rx="4" fill="#22c55e" fill-opacity="0.65"/><text x="400" y="410" text-anchor="middle" fill="#ffffff" font-size="10.5">94%</text>
  <rect x="454" y="390" width="92" height="30" rx="4" fill="#22c55e" fill-opacity="0.55"/><text x="500" y="410" text-anchor="middle" fill="#ffffff" font-size="10.5">92%</text>
  <rect x="554" y="390" width="92" height="30" rx="4" fill="#22c55e" fill-opacity="0.45"/><text x="600" y="410" text-anchor="middle" fill="#ffffff" font-size="10.5">90%</text>
  <rect x="654" y="390" width="92" height="30" rx="4" fill="#22c55e" fill-opacity="0.35"/><text x="700" y="410" text-anchor="middle" fill="#ffffff" font-size="10.5">88%</text>
  <!-- Row 3: Mar (5 cells) -->
  <text x="124" y="446" fill="#6b7280" font-size="11">Mar</text>
  <rect x="154" y="428" width="92" height="30" rx="4" fill="#22c55e" fill-opacity="0.9"/><text x="200" y="448" text-anchor="middle" fill="#ffffff" font-size="10.5">100%</text>
  <rect x="254" y="428" width="92" height="30" rx="4" fill="#22c55e" fill-opacity="0.75"/><text x="300" y="448" text-anchor="middle" fill="#ffffff" font-size="10.5">96%</text>
  <rect x="354" y="428" width="92" height="30" rx="4" fill="#22c55e" fill-opacity="0.6"/><text x="400" y="448" text-anchor="middle" fill="#ffffff" font-size="10.5">93%</text>
  <rect x="454" y="428" width="92" height="30" rx="4" fill="#22c55e" fill-opacity="0.48"/><text x="500" y="448" text-anchor="middle" fill="#ffffff" font-size="10.5">91%</text>
  <rect x="554" y="428" width="92" height="30" rx="4" fill="#22c55e" fill-opacity="0.36"/><text x="600" y="448" text-anchor="middle" fill="#ffffff" font-size="10.5">89%</text>
  <!-- Row 4: Apr (4 cells) -->
  <text x="124" y="484" fill="#6b7280" font-size="11">Apr</text>
  <rect x="154" y="466" width="92" height="30" rx="4" fill="#22c55e" fill-opacity="0.9"/><text x="200" y="486" text-anchor="middle" fill="#ffffff" font-size="10.5">100%</text>
  <rect x="254" y="466" width="92" height="30" rx="4" fill="#22c55e" fill-opacity="0.72"/><text x="300" y="486" text-anchor="middle" fill="#ffffff" font-size="10.5">95%</text>
  <rect x="354" y="466" width="92" height="30" rx="4" fill="#22c55e" fill-opacity="0.55"/><text x="400" y="486" text-anchor="middle" fill="#ffffff" font-size="10.5">92%</text>
  <rect x="454" y="466" width="92" height="30" rx="4" fill="#22c55e" fill-opacity="0.4"/><text x="500" y="486" text-anchor="middle" fill="#ffffff" font-size="10.5">90%</text>
  <!-- Row 5: May (3 cells) -->
  <text x="124" y="522" fill="#6b7280" font-size="11">May</text>
  <rect x="154" y="504" width="92" height="30" rx="4" fill="#22c55e" fill-opacity="0.9"/><text x="200" y="524" text-anchor="middle" fill="#ffffff" font-size="10.5">100%</text>
  <rect x="254" y="504" width="92" height="30" rx="4" fill="#22c55e" fill-opacity="0.7"/><text x="300" y="524" text-anchor="middle" fill="#ffffff" font-size="10.5">97%</text>
  <rect x="354" y="504" width="92" height="30" rx="4" fill="#22c55e" fill-opacity="0.5"/><text x="400" y="524" text-anchor="middle" fill="#ffffff" font-size="10.5">94%</text>
  <!-- Row 6: Jun (2 cells) -->
  <text x="124" y="560" fill="#6b7280" font-size="11">Jun</text>
  <rect x="154" y="542" width="92" height="30" rx="4" fill="#22c55e" fill-opacity="0.9"/><text x="200" y="562" text-anchor="middle" fill="#ffffff" font-size="10.5">100%</text>
  <rect x="254" y="542" width="92" height="30" rx="4" fill="#22c55e" fill-opacity="0.75"/><text x="300" y="562" text-anchor="middle" fill="#ffffff" font-size="10.5">98%</text>
  <!-- Legend -->
  <rect x="124" y="600" width="14" height="14" rx="3" fill="#22c55e" fill-opacity="0.9"/>
  <text x="144" y="612" fill="#6b7280" font-size="10">High</text>
  <rect x="184" y="600" width="14" height="14" rx="3" fill="#22c55e" fill-opacity="0.5"/>
  <text x="204" y="612" fill="#6b7280" font-size="10">Mid</text>
  <rect x="234" y="600" width="14" height="14" rx="3" fill="#22c55e" fill-opacity="0.32"/>
  <text x="254" y="612" fill="#6b7280" font-size="10">Low</text>
  <!-- Footer -->
  <text x="1156" y="700" text-anchor="end" fill="#4b5563" font-size="10">Illustrative</text>
</svg>
