<svg xmlns="http://www.w3.org/2000/svg" viewBox="0 0 1280 800" width="1280" height="800">
<defs>
 <linearGradient id="g" x1="0" y1="0" x2="1" y2="1"><stop offset="0" stop-color="#7c3aed"/><stop offset="1" stop-color="#c026d3"/></linearGradient>
 <linearGradient id="ar" x1="0" y1="0" x2="0" y2="1"><stop offset="0" stop-color="#8b5cf6" stop-opacity="0.35"/><stop offset="1" stop-color="#8b5cf6" stop-opacity="0"/></linearGradient>
 <radialGradient id="gl1" cx="0.5" cy="0.5" r="0.5"><stop offset="0" stop-color="#8b5cf6" stop-opacity="0.55"/><stop offset="1" stop-color="#8b5cf6" stop-opacity="0"/></radialGradient>
 <radialGradient id="gl2" cx="0.5" cy="0.5" r="0.5"><stop offset="0" stop-color="#c026d3" stop-opacity="0.4"/><stop offset="1" stop-color="#c026d3" stop-opacity="0"/></radialGradient>
 <filter id="sh" x="-30%" y="-30%" width="160%" height="160%"><feDropShadow dx="0" dy="30" stdDeviation="38" flood-color="#000000" flood-opacity="0.5"/></filter>
 <style>text{font-family:'Inter','Helvetica Neue',Arial,sans-serif}</style>
</defs>
<rect width="1280" height="800" fill="#0b0b14"/>
<circle cx="1080" cy="90" r="380" fill="url(#gl1)" opacity="0.6"/>
<circle cx="150" cy="720" r="300" fill="url(#gl2)" opacity="0.5"/>
<rect x="90" y="80" width="1100" height="640" rx="18" fill="#121019" stroke="#ffffff" stroke-opacity="0.09" filter="url(#sh)"/>
<circle cx="122" cy="104" r="6" fill="#ef4444"/><circle cx="142" cy="104" r="6" fill="#f59e0b"/><circle cx="162" cy="104" r="6" fill="#22c55e"/>
<text x="640" y="109" text-anchor="middle" fill="#9ca3af" font-size="13" font-weight="600">RetailGuard / Benchmark</text>
<circle cx="1098" cy="104" r="4" fill="#22c55e"/><text x="1110" y="108" fill="#22c55e" font-size="11.5" font-weight="600">Live</text>
<line x1="90" y1="128" x2="1190" y2="128" stroke="#ffffff" stroke-opacity="0.07"/>

<text x="124" y="170" fill="#ffffff" font-size="20" font-weight="700">Your store vs the network</text>
<text x="124" y="195" fill="#6b7280" font-size="13">Benchmarked against the RetailGuard network</text>
<rect x="124" y="222" width="320" height="106" rx="10" fill="#16151f"/>
<text x="144" y="252" fill="#9ca3af" font-size="11" font-weight="600">NETWORK PERCENTILE</text>
<text x="144" y="290" fill="#ffffff" font-size="32" font-weight="800">top 18%</text>
<text x="144" y="314" fill="#22c55e" font-size="12">for gross margin</text>
<text x="124" y="378" fill="#ffffff" font-size="13.5" font-weight="600">Gross margin</text>
<rect x="124" y="390" width="900" height="16" rx="8" fill="#2c2a3d"/>
<rect x="124" y="390" width="738" height="16" rx="8" fill="url(#g)"/>
<text x="872" y="403" fill="#c4b5fd" font-size="12">top 18%</text>
<text x="124" y="448" fill="#ffffff" font-size="13.5" font-weight="600">Basket value</text>
<rect x="124" y="460" width="900" height="16" rx="8" fill="#2c2a3d"/>
<rect x="124" y="460" width="594" height="16" rx="8" fill="url(#g)"/>
<text x="728" y="473" fill="#c4b5fd" font-size="12">top 34%</text>
<text x="124" y="518" fill="#ffffff" font-size="13.5" font-weight="600">Waste control</text>
<rect x="124" y="530" width="900" height="16" rx="8" fill="#2c2a3d"/>
<rect x="124" y="530" width="639" height="16" rx="8" fill="url(#g)"/>
<text x="773" y="543" fill="#c4b5fd" font-size="12">better than 71%</text>
<text x="124" y="588" fill="#ffffff" font-size="13.5" font-weight="600">Repricing speed</text>
<rect x="124" y="600" width="900" height="16" rx="8" fill="#2c2a3d"/>
<rect x="124" y="600" width="819" height="16" rx="8" fill="url(#g)"/>
<text x="953" y="613" fill="#c4b5fd" font-size="12">top 9%</text>
<text x="1156" y="700" text-anchor="end" fill="#4b5563" font-size="10">Illustrative</text>
</svg>
